<?xml version="1.0" encoding="utf-8"?>
<!-- Generator: Adobe Illustrator 17.1.0, SVG Export Plug-In . SVG Version: 6.00 Build 0)  -->
<!DOCTYPE svg PUBLIC "-//W3C//DTD SVG 1.1//EN" "http://www.w3.org/Graphics/SVG/1.1/DTD/svg11.dtd">
<svg version="1.1" id="Слой_1" xmlns="http://www.w3.org/2000/svg" xmlns:xlink="http://www.w3.org/1999/xlink" x="0px" y="0px"
	 viewBox="0 0 370.5 61.3" enable-background="new 0 0 370.5 61.3" xml:space="preserve">
<g>
	<path fill-rule="evenodd" clip-rule="evenodd" fill="#BE3944" d="M194.6,24.8c0,0.4,0.1,0.8,0.2,1.1l0,0c0.1,0.4,0.2,0.7,0.4,1.1
		c0.2,0.3,0.4,0.7,0.7,1c0.3,0.3,0.6,0.5,0.9,0.7c0.4,0.2,0.8,0.4,1.2,0.5c0.4,0.1,0.9,0.2,1.4,0.2l0,0l0,0c0.4,0,0.7,0,1.1,0
		c0.3,0,0.7-0.1,1-0.1c0.3-0.1,0.6-0.2,0.9-0.3c0.3-0.1,0.6-0.3,0.9-0.5l0.1-0.1l0.1-0.1l0.1-0.1l0.1-0.1l0,0
		c0.2-0.2,0.4-0.3,0.6-0.4c0.2-0.1,0.5-0.2,0.7-0.2l0,0c0.2,0,0.5,0,0.7,0.1c0.2,0.1,0.4,0.2,0.5,0.3c0.1,0.1,0.2,0.3,0.3,0.5
		c0.1,0.2,0.1,0.4,0.1,0.6c0,0.2-0.1,0.4-0.1,0.6c-0.1,0.2-0.2,0.3-0.3,0.5v0l0,0c-0.1,0.1-0.3,0.3-0.4,0.4
		c-0.2,0.1-0.3,0.3-0.5,0.4c-0.2,0.1-0.4,0.3-0.5,0.4c-0.2,0.1-0.4,0.2-0.5,0.3c-0.3,0.1-0.7,0.3-1.1,0.5c-0.3,0.1-0.7,0.3-1.1,0.4
		c-0.3,0.1-0.7,0.2-1,0.2c-0.3,0-0.6,0.1-0.9,0.1h-0.7c-0.5,0-1,0-1.6-0.1c-0.5-0.1-1.1-0.2-1.5-0.4c-0.5-0.2-1-0.4-1.4-0.6
		c-0.4-0.2-0.8-0.5-1.2-0.8c-0.3-0.3-0.6-0.5-0.8-0.8c-0.2-0.3-0.4-0.5-0.6-0.8l0,0l-0.1-0.2c-0.2-0.3-0.4-0.7-0.5-1.1
		c-0.2-0.4-0.3-0.7-0.4-1.1c-0.1-0.4-0.2-0.9-0.2-1.4c0-0.5,0-0.9,0-1.4c0-0.4,0.1-0.9,0.3-1.3c0.1-0.4,0.3-0.8,0.5-1.2
		c0.2-0.5,0.5-0.9,0.8-1.3h0c0.3-0.4,0.7-0.8,1.1-1.1c0.4-0.4,0.8-0.7,1.3-1l0,0c0.5-0.3,1-0.6,1.5-0.8c0.8-0.4,1.7-0.6,2.7-0.8
		c1-0.2,1.9-0.2,2.9-0.2c1,0,2,0.2,2.9,0.4c0.9,0.2,1.8,0.6,2.7,1c0.2,0.1,0.4,0.2,0.6,0.3c0.2,0.1,0.4,0.2,0.5,0.3h0
		c0,0,0.5,0.3,0.7,0.5c0.1,0.1,0.1,0.1,0.2,0.2c0,0,0.1,0.1,0.1,0.1c0.2,0.2,0.4,0.3,0.5,0.5c0.2,0.2,0.3,0.3,0.4,0.5v0
		c0.2,0.2,0.3,0.5,0.4,0.8v0c0.1,0.3,0.2,0.6,0.2,0.9c0,0.1,0,0.3,0,0.5c0,0.2,0,0.3,0,0.5V31c0,0.2,0,0.4-0.1,0.6
		c-0.1,0.2-0.2,0.4-0.3,0.5l0,0h0c-0.1,0.1-0.3,0.2-0.5,0.3c-0.2,0.1-0.4,0.1-0.6,0.1c-0.2,0-0.4,0-0.6-0.1
		c-0.2-0.1-0.4-0.2-0.5-0.3v0c-0.1-0.1-0.3-0.3-0.3-0.5c-0.1-0.2-0.1-0.4-0.1-0.6v-0.1h0v-8.7c-0.2-0.2-0.3-0.4-0.5-0.5
		c-0.2-0.2-0.4-0.4-0.7-0.5v0c-0.3-0.2-0.5-0.3-0.8-0.5c-0.3-0.2-0.6-0.3-0.9-0.4c-0.7-0.3-1.4-0.5-2.1-0.6
		c-0.7-0.1-1.5-0.2-2.2-0.2c-0.7,0-1.4,0.1-2.1,0.3c-0.7,0.2-1.3,0.4-1.9,0.7c-0.9,0.5-1.6,1.1-2.1,1.9
		C194.9,23,194.6,23.8,194.6,24.8z"/>
	<path fill-rule="evenodd" clip-rule="evenodd" fill="#BE3944" d="M301.6,24.7c0,0.4,0.1,0.8,0.2,1.1h0c0.1,0.4,0.2,0.7,0.4,1.1
		c0.2,0.3,0.4,0.7,0.7,1c0.3,0.3,0.6,0.5,0.9,0.7c0.4,0.2,0.8,0.4,1.2,0.5c0.4,0.1,0.9,0.2,1.4,0.2l0,0l0,0c0.4,0,0.7,0,1.1,0
		c0.3,0,0.7-0.1,1-0.1c0.3-0.1,0.6-0.2,0.9-0.3c0.3-0.1,0.6-0.3,0.9-0.5l0.1-0.1l0.1-0.1l0.1-0.1l0.1-0.1l0,0
		c0.2-0.2,0.4-0.3,0.6-0.4c0.2-0.1,0.5-0.2,0.7-0.2l0,0c0.2,0,0.5,0,0.7,0.1c0.2,0.1,0.4,0.2,0.5,0.3c0.1,0.1,0.2,0.3,0.3,0.5
		c0.1,0.2,0.1,0.4,0.1,0.6c0,0.2-0.1,0.4-0.1,0.6c-0.1,0.2-0.2,0.3-0.3,0.5v0l0,0c-0.1,0.1-0.3,0.3-0.4,0.4
		c-0.2,0.1-0.3,0.3-0.5,0.4c-0.2,0.1-0.4,0.3-0.5,0.4c-0.2,0.1-0.4,0.2-0.5,0.3c-0.3,0.1-0.7,0.3-1.1,0.5c-0.3,0.1-0.7,0.3-1.1,0.4
		c-0.3,0.1-0.7,0.2-1,0.2c-0.3,0-0.6,0.1-0.9,0.1h-0.7c-0.5,0-1,0-1.6-0.1c-0.5-0.1-1.1-0.2-1.5-0.4c-0.5-0.2-1-0.4-1.4-0.6
		c-0.4-0.2-0.8-0.5-1.2-0.8c-0.3-0.3-0.6-0.5-0.8-0.8c-0.2-0.3-0.4-0.5-0.6-0.8l0,0l-0.1-0.2c-0.2-0.3-0.4-0.7-0.5-1.1
		c-0.2-0.4-0.3-0.7-0.4-1.1c-0.1-0.4-0.2-0.9-0.2-1.4c0-0.5,0-0.9,0-1.4c0-0.4,0.1-0.9,0.3-1.3c0.1-0.4,0.3-0.8,0.5-1.2
		c0.2-0.5,0.5-0.9,0.8-1.3h0c0.3-0.4,0.7-0.8,1.1-1.1c0.4-0.4,0.8-0.7,1.3-1v0c0.5-0.3,1-0.6,1.5-0.8c0.8-0.4,1.7-0.6,2.7-0.8
		c1-0.2,1.9-0.2,2.9-0.2c1,0,2,0.2,2.9,0.4c0.9,0.2,1.8,0.6,2.7,1c0.2,0.1,0.4,0.2,0.6,0.3c0.2,0.1,0.4,0.2,0.5,0.3l0,0
		c0,0,0.5,0.3,0.7,0.5c0.1,0.1,0.1,0.1,0.2,0.2c0,0,0.1,0.1,0.1,0.1c0.2,0.2,0.4,0.3,0.5,0.5c0.2,0.2,0.3,0.3,0.4,0.5v0
		c0.2,0.2,0.3,0.5,0.4,0.8v0c0.1,0.3,0.2,0.6,0.2,0.9c0,0.1,0,0.3,0,0.5c0,0.2,0,0.3,0,0.5V31c0,0.2,0,0.4-0.1,0.6
		c-0.1,0.2-0.2,0.4-0.3,0.5l0,0h0c-0.1,0.1-0.3,0.2-0.5,0.3c-0.2,0.1-0.4,0.1-0.6,0.1c-0.2,0-0.4,0-0.6-0.1
		c-0.2-0.1-0.4-0.2-0.5-0.3l0,0c-0.1-0.1-0.3-0.3-0.3-0.5c-0.1-0.2-0.1-0.4-0.1-0.6v-0.1h0v-8.7c-0.2-0.2-0.3-0.4-0.5-0.5
		c-0.2-0.2-0.4-0.4-0.7-0.5v0c-0.3-0.2-0.5-0.3-0.8-0.5c-0.3-0.2-0.6-0.3-0.9-0.4c-0.7-0.3-1.4-0.5-2.1-0.6
		c-0.7-0.1-1.5-0.2-2.2-0.2c-0.7,0-1.4,0.1-2.1,0.3c-0.7,0.2-1.3,0.4-1.9,0.7c-0.9,0.5-1.6,1.1-2.1,1.9
		C301.9,22.9,301.6,23.8,301.6,24.7z"/>
	<path fill-rule="evenodd" clip-rule="evenodd" fill="#BE3944" d="M151.2,32.1c-0.5-0.2-1-0.4-1.4-0.6c-0.4-0.2-0.8-0.5-1.2-0.8v0
		c-0.4-0.4-0.8-0.8-1.1-1.3c-0.3-0.5-0.6-0.9-0.8-1.5c-0.2-0.5-0.4-1.1-0.5-1.6c-0.1-0.5-0.2-1.1-0.2-1.7h0v-0.1V18
		c0-0.1,0-0.2,0-0.3c0-0.2,0.1-0.3,0.2-0.5l0,0c0.4-0.8,1.3-1,2.1-0.7c0.2,0.1,0.4,0.2,0.5,0.3h0c0.1,0.1,0.3,0.3,0.4,0.5
		c0.1,0.2,0.1,0.5,0.1,0.8h0l0,2.8v0l0,0l0,0v0l0,0v4c0,0.6,0.2,1.2,0.4,1.7c0.2,0.5,0.6,1,1,1.4c0.4,0.4,0.9,0.7,1.5,0.9
		c0.5,0.2,1.1,0.3,1.8,0.3l0,0h0c0.7,0,1.5-0.1,2.3-0.4c0.9-0.2,1.9-0.6,2.8-1c0.9-0.4,1.8-0.9,2.5-1.3c0.7-0.4,1.2-0.9,1.6-1.3
		v-7.4c0-0.1,0-0.2,0-0.3c0-0.2,0.1-0.3,0.2-0.5v0c0.5-0.9,1.8-1.1,2.6-0.3c0.1,0.1,0.3,0.3,0.4,0.5c0.1,0.2,0.1,0.4,0.1,0.6v0v3
		l0,0v0v0h0v10h0c0,0.2,0,0.4-0.1,0.6c-0.1,0.2-0.1,0.3-0.2,0.4v0l0,0l0,0c-0.1,0.1-0.2,0.2-0.3,0.2c-0.1,0.1-0.2,0.1-0.3,0.2
		c-0.1,0-0.2,0.1-0.3,0.1h0c-0.1,0-0.2,0-0.4,0v0c-0.2,0-0.4,0-0.6-0.1c-0.2-0.1-0.3-0.2-0.5-0.3c-0.1-0.1-0.2-0.2-0.3-0.3l0,0
		c-0.1-0.1-0.1-0.2-0.2-0.3l0,0v0c0-0.1-0.1-0.2-0.1-0.3c0-0.1,0-0.2,0-0.4v-0.1h0l0-1.3c-0.6,0.4-1.2,0.8-1.9,1.1
		c-0.7,0.4-1.5,0.7-2.3,1c-0.8,0.3-1.6,0.5-2.5,0.7c-0.8,0.1-1.6,0.2-2.3,0.2v0c-0.5,0-1,0-1.6-0.1
		C152.2,32.4,151.7,32.2,151.2,32.1z"/>
	<path fill-rule="evenodd" clip-rule="evenodd" fill="#BE3944" d="M350,17.4c0-0.2,0.1-0.3,0.2-0.5v0c0.4-0.7,1.3-1,2.1-0.7
		c0.2,0.1,0.4,0.2,0.5,0.3l0,0c0.1,0.1,0.3,0.3,0.4,0.5c0.1,0.2,0.1,0.5,0.1,0.7h0c0,2.5,1.1,3.9,3.6,4.8c1,0.4,2,0.5,3,0.5
		c3,0,6-1.3,7.4-3.4l0-2.2c0-0.1,0-0.2,0-0.3c0-0.2,0.1-0.3,0.2-0.5v0c0.5-0.9,1.8-1.1,2.6-0.3c0.1,0.1,0.3,0.3,0.4,0.5
		c0.1,0.2,0.1,0.4,0.1,0.6v0l0,6.3c-0.1,1.3-0.3,2.5-0.9,3.7c-0.2,0.4-0.5,0.9-0.8,1.2c-0.3,0.4-0.7,0.8-1.1,1.1
		c-0.4,0.3-0.8,0.7-1.3,1c-0.5,0.3-1,0.5-1.5,0.8c-0.8,0.4-1.7,0.6-2.7,0.8c-1,0.2-1.9,0.2-2.9,0.2c-1,0-2-0.2-2.9-0.4
		c-0.9-0.2-1.8-0.5-2.7-1c-0.2-0.1-0.4-0.2-0.6-0.3c-0.2-0.1-0.4-0.2-0.5-0.3h0c-0.2-0.1-0.4-0.2-0.5-0.3c-0.2-0.1-0.3-0.3-0.5-0.4
		l-0.1-0.1c-0.7-0.6-1.6-1.5-1.1-2.5v0l0,0c0.1-0.1,0.1-0.2,0.2-0.3c0.1-0.1,0.2-0.2,0.3-0.2l0,0h0c0.1-0.1,0.2-0.1,0.4-0.1
		c0.1,0,0.3-0.1,0.4-0.1h0c0.4,0,0.7,0,1,0.2c0.3,0.1,0.5,0.3,0.8,0.6l0.2,0.2l0,0c0.1,0.1,0.3,0.2,0.5,0.4c0.2,0.1,0.3,0.2,0.5,0.3
		c0.2,0.1,0.4,0.2,0.6,0.3c0.2,0.1,0.4,0.2,0.6,0.3c0.7,0.3,1.4,0.4,2.1,0.6c0.7,0.1,1.5,0.2,2.2,0.2c0.7,0,1.4-0.1,2.1-0.3
		c0.7-0.2,1.3-0.4,1.9-0.7c0.2-0.1,0.5-0.3,0.7-0.4c0.2-0.1,0.4-0.3,0.6-0.4l0,0l0,0c0.2-0.1,0.3-0.3,0.5-0.5
		c0.1-0.2,0.3-0.3,0.4-0.5c0.6-0.9,0.7-1.6,0.7-2.6c-2.4,1.8-6.3,2.8-9.9,2.1c-2.6-0.5-5.1-1.8-6.5-4.2c-0.3-0.5-0.6-1.3-0.7-2.1
		C349.9,19.1,349.8,18.2,350,17.4z"/>
	<path fill-rule="evenodd" clip-rule="evenodd" fill="#BE3944" d="M259.4,21.3c-0.2,0.1-0.3,0.3-0.5,0.5c-0.1,0.2-0.3,0.4-0.4,0.5
		c-0.2,0.4-0.4,0.8-0.5,1.2c-0.1,0.4-0.2,0.9-0.2,1.3v0c0,0.4,0.1,0.8,0.1,1.1l0,0c0.1,0.4,0.2,0.7,0.4,1.1c0.2,0.3,0.4,0.7,0.7,1
		c0.3,0.3,0.6,0.5,0.9,0.7c0.4,0.2,0.8,0.4,1.2,0.5c0.4,0.1,0.9,0.2,1.4,0.2l0,0h0c0.4,0,0.7,0,1.1,0c0.3,0,0.7-0.1,1-0.1
		c0.3-0.1,0.6-0.2,0.9-0.3c0.3-0.1,0.6-0.3,0.9-0.5l0,0l0.1-0.1l0,0l0.1-0.1l0,0l0.1-0.1v0l0.1-0.1c0.2-0.2,0.4-0.3,0.7-0.4
		c0.2-0.1,0.5-0.2,0.7-0.2l0,0c0.2,0,0.5,0,0.7,0.1c0.2,0.1,0.4,0.2,0.5,0.3l0,0l0,0l0,0c0.1,0.1,0.2,0.3,0.3,0.5l0,0
		c0.1,0.2,0.1,0.4,0.1,0.6c0,0.2-0.1,0.4-0.1,0.6l0,0c-0.1,0.2-0.2,0.3-0.3,0.5v0c-0.1,0.1-0.3,0.3-0.4,0.4
		c-0.2,0.1-0.3,0.3-0.5,0.4l0,0h0c-0.2,0.1-0.3,0.2-0.5,0.3c-0.2,0.1-0.3,0.2-0.4,0.2v0l-0.1,0c-0.3,0.1-0.7,0.3-1.1,0.5
		c-0.3,0.1-0.7,0.3-1.1,0.4c-0.3,0.1-0.7,0.2-1,0.2v0c-0.3,0-0.6,0.1-0.9,0.1h-0.7h-0.1v0c-0.5,0-1-0.1-1.4-0.1
		c-0.5-0.1-1.1-0.2-1.5-0.4c-0.5-0.2-1-0.4-1.4-0.6c-0.4-0.2-0.8-0.5-1.2-0.8l0,0c-0.3-0.3-0.6-0.5-0.8-0.8l0,0
		c-0.2-0.3-0.5-0.6-0.7-1l0,0v0c-0.2-0.3-0.4-0.7-0.5-1c-0.2-0.4-0.3-0.7-0.4-1.1c-0.1-0.4-0.2-0.9-0.2-1.4v0c0-0.5,0-0.9,0-1.4
		c0-0.4,0.1-0.9,0.3-1.3c0.1-0.4,0.3-0.8,0.5-1.3c0.2-0.5,0.5-0.9,0.8-1.3c0.3-0.4,0.7-0.8,1.1-1.1c0.4-0.4,0.8-0.7,1.3-1
		c0.5-0.3,1-0.6,1.5-0.8c0.8-0.4,1.7-0.6,2.7-0.8c1-0.2,1.9-0.2,2.9-0.2c1,0,2,0.2,2.9,0.4c0.9,0.2,1.8,0.6,2.7,1
		c0.2,0.1,0.4,0.2,0.6,0.3c0.2,0.1,0.4,0.2,0.5,0.3h0c0.2,0.1,0.4,0.2,0.5,0.4c0.2,0.1,0.3,0.3,0.5,0.4l0.1,0.1
		c0.7,0.6,1.6,1.5,1.1,2.6v0l0,0c-0.1,0.1-0.1,0.2-0.2,0.3c-0.1,0.1-0.2,0.2-0.3,0.2l0,0h0c-0.1,0.1-0.2,0.1-0.4,0.1
		c-0.1,0-0.3,0.1-0.4,0.1l0,0c-0.4,0-0.7,0-1-0.2c-0.3-0.1-0.5-0.3-0.8-0.6l-0.2-0.2l0,0c-0.1-0.1-0.3-0.2-0.5-0.4
		c-0.2-0.1-0.3-0.2-0.5-0.3c-0.2-0.1-0.4-0.2-0.6-0.3c-0.2-0.1-0.4-0.2-0.6-0.3c-0.7-0.3-1.4-0.5-2.1-0.6c-0.7-0.1-1.5-0.2-2.2-0.2
		c-0.7,0-1.4,0.1-2.1,0.3c-0.7,0.2-1.3,0.4-1.9,0.7c-0.2,0.1-0.5,0.3-0.7,0.4C259.8,20.9,259.6,21.1,259.4,21.3L259.4,21.3
		L259.4,21.3z"/>
	<path fill-rule="evenodd" clip-rule="evenodd" fill="#BE3944" d="M105.6,21.5c-0.2,0.2-0.3,0.3-0.5,0.5c-0.1,0.2-0.3,0.4-0.4,0.5
		c-0.2,0.4-0.4,0.7-0.5,1.1c-0.1,0.4-0.2,0.8-0.2,1.2c0,0.4,0.1,0.8,0.2,1.2c0.1,0.4,0.3,0.8,0.5,1.1c0.2,0.4,0.4,0.7,0.7,1
		c0.3,0.3,0.6,0.5,0.9,0.8h0c1.8,1.2,4.6,0.9,6.4-0.2v0l0.1-0.1l0.1-0.1l0,0l0.1-0.1l0.1-0.1l0,0h0l0,0c0.2-0.2,0.4-0.3,0.6-0.4
		c0.2-0.1,0.5-0.2,0.7-0.2c0.2,0,0.5,0,0.7,0.1c0.2,0.1,0.4,0.2,0.5,0.3c0.1,0.1,0.2,0.3,0.3,0.5c0.1,0.2,0.1,0.4,0.1,0.6
		c0,0.2-0.1,0.4-0.1,0.6c-0.1,0.2-0.2,0.3-0.3,0.5v0l0,0c-0.1,0.1-0.3,0.3-0.4,0.4l0,0c-0.2,0.1-0.3,0.3-0.5,0.4
		c-1.9,1.4-4.4,1.9-6.8,1.6c-3.4-0.4-6.1-2.4-7-5.8c-0.4-1.5-0.2-3.2,0.1-4.1c0.1-0.4,0.3-0.9,0.5-1.3c0.2-0.5,0.5-0.9,0.8-1.3v0
		c0.3-0.4,0.7-0.8,1.1-1.1c0.4-0.4,0.8-0.7,1.3-1v0c0.5-0.3,1-0.6,1.5-0.8c0.8-0.4,1.7-0.6,2.7-0.8c1-0.2,1.9-0.2,2.9-0.2
		c1,0,2,0.2,2.9,0.4c0.9,0.2,1.8,0.6,2.7,1l0,0l0,0l0,0v0c0.2,0.1,0.3,0.2,0.5,0.3c0.2,0.1,0.4,0.2,0.5,0.3l0,0
		c0.2,0.1,0.3,0.2,0.5,0.4l0,0c0.2,0.1,0.3,0.3,0.5,0.4l0.1,0l0,0c0.3,0.3,0.7,0.7,1,1.1c0.8,1.2-0.2,2-1.3,2.4l-7.8,3.4l-0.1,0
		l-0.1,0l0,0l-2.1,0.9c-0.5,0.2-0.9,0.3-1.2,0.3c-0.4,0-0.7-0.1-0.9-0.3h0l0,0c-0.1-0.1-0.2-0.2-0.2-0.2l0,0l0,0
		c-0.1-0.1-0.1-0.2-0.2-0.3l0-0.1l0,0c0-0.1,0-0.2-0.1-0.2c0-0.1,0-0.2,0-0.3h0v0l0,0c0-0.3,0.1-0.6,0.4-0.9
		c0.2-0.2,0.4-0.4,0.7-0.6v0l0.1,0l3.5-1.5l0,0l0,0l0,0h0l4.8-2.1l-0.2-0.1h0c-0.1-0.1-0.2-0.1-0.3-0.2c-0.1-0.1-0.2-0.1-0.4-0.2
		c-0.7-0.3-1.4-0.5-2.1-0.6c-0.7-0.1-1.5-0.2-2.2-0.2c-0.7,0-1.4,0.1-2.1,0.3c-0.7,0.2-1.3,0.4-1.9,0.7l0,0l0,0l0,0
		c-0.2,0.1-0.4,0.2-0.6,0.4C106,21.1,105.8,21.3,105.6,21.5z"/>
	<path fill-rule="evenodd" clip-rule="evenodd" fill="#BE3944" d="M238.2,21.4c-0.2,0.2-0.3,0.3-0.5,0.5c-0.1,0.2-0.3,0.4-0.4,0.5
		c-0.2,0.4-0.4,0.7-0.5,1.1c-0.1,0.4-0.2,0.8-0.2,1.2c0,0.4,0.1,0.8,0.2,1.2c0.1,0.4,0.3,0.8,0.5,1.1c0.2,0.4,0.4,0.7,0.7,1
		c0.3,0.3,0.6,0.5,0.9,0.8h0c1.8,1.2,4.6,0.9,6.4-0.2v0l0.1-0.1l0.1-0.1l0,0l0.1-0.1l0.1-0.1l0,0l0,0l0,0c0.2-0.2,0.4-0.3,0.6-0.4
		c0.2-0.1,0.5-0.2,0.7-0.2c0.2,0,0.5,0,0.7,0.1c0.2,0.1,0.4,0.2,0.5,0.3c0.1,0.1,0.2,0.3,0.3,0.5c0.1,0.2,0.1,0.4,0.1,0.6
		c0,0.2-0.1,0.4-0.1,0.6c-0.1,0.2-0.2,0.3-0.3,0.5v0l0,0c-0.1,0.1-0.3,0.3-0.4,0.4v0c-0.2,0.1-0.3,0.3-0.5,0.4
		c-1.9,1.4-4.4,1.9-6.8,1.6c-3.4-0.4-6.1-2.4-7-5.8c-0.4-1.5-0.2-3.2,0.1-4.1c0.1-0.4,0.3-0.9,0.5-1.3c0.2-0.5,0.5-0.9,0.8-1.3v0
		c0.3-0.4,0.7-0.8,1.1-1.1c0.4-0.4,0.8-0.7,1.3-1v0c0.5-0.3,1-0.6,1.5-0.8c0.8-0.4,1.7-0.6,2.7-0.8c1-0.2,1.9-0.2,2.9-0.2
		c1,0,2,0.2,2.9,0.4c0.9,0.2,1.8,0.6,2.7,1l0,0l0,0l0,0v0c0.2,0.1,0.3,0.2,0.5,0.3c0.2,0.1,0.4,0.2,0.5,0.3h0
		c0.2,0.1,0.3,0.2,0.5,0.4h0c0.2,0.1,0.3,0.3,0.5,0.4l0.1,0l0,0c0.3,0.3,0.7,0.7,1,1.1c0.8,1.2-0.2,2-1.3,2.4l-7.8,3.4l-0.1,0
		l-0.1,0l0,0l-2.1,0.9c-0.5,0.2-0.9,0.3-1.2,0.3c-0.4,0-0.7-0.1-0.9-0.3h0l0,0c-0.1-0.1-0.2-0.2-0.2-0.2l0,0h0
		c-0.1-0.1-0.1-0.2-0.2-0.3l0-0.1l0,0c0-0.1,0-0.2-0.1-0.2c0-0.1,0-0.2,0-0.3l0,0l0,0v0c0-0.3,0.1-0.6,0.4-0.9
		c0.2-0.2,0.4-0.4,0.7-0.6v0l0.1,0l3.5-1.5v0l0,0l0,0l0,0l4.8-2.1l-0.2-0.1l0,0c-0.1-0.1-0.2-0.1-0.3-0.2c-0.1-0.1-0.2-0.1-0.4-0.2
		c-0.7-0.3-1.4-0.5-2.1-0.6c-0.7-0.1-1.5-0.2-2.2-0.2c-0.7,0-1.4,0.1-2.1,0.3c-0.7,0.2-1.3,0.4-1.9,0.7l0,0l0,0l0,0
		c-0.2,0.1-0.4,0.2-0.6,0.4C238.6,21.1,238.4,21.2,238.2,21.4z"/>
	<path fill-rule="evenodd" clip-rule="evenodd" fill="#BE3944" d="M333.2,21.1c-0.2,0.2-0.3,0.3-0.5,0.5c-0.1,0.2-0.3,0.4-0.4,0.5
		c-0.2,0.4-0.4,0.7-0.5,1.1c-0.1,0.4-0.2,0.8-0.2,1.2c0,0.1,0,0.1,0,0.2c-0.4-0.1-0.9-0.2-1.4-0.2c-0.7,0-1.3,0.1-1.9,0.3
		c0-1,0.1-1.9,0.3-2.5c0.1-0.4,0.3-0.9,0.5-1.3c0.2-0.5,0.5-0.9,0.8-1.3l0,0c0.3-0.4,0.7-0.8,1.1-1.1c0.4-0.4,0.8-0.7,1.3-1v0
		c0.5-0.3,1-0.6,1.5-0.8c0.8-0.4,1.7-0.6,2.7-0.8c1-0.2,1.9-0.2,2.9-0.2c1,0,2,0.2,2.9,0.4c0.9,0.2,1.8,0.6,2.7,1l0,0l0,0l0,0v0
		c0.2,0.1,0.3,0.2,0.5,0.3c0.2,0.1,0.4,0.2,0.5,0.3l0,0c0.2,0.1,0.3,0.2,0.5,0.4h0c0.2,0.1,0.3,0.3,0.5,0.4l0.1,0l0,0
		c0.3,0.3,0.7,0.7,1,1.1c0.8,1.2-0.2,2-1.3,2.4l-7.8,3.4l-0.1,0l-0.1,0l0,0l-2.1,0.9c-0.5,0.2-0.9,0.3-1.2,0.3
		c-0.4,0-0.7-0.1-0.9-0.3h0l0,0c-0.1-0.1-0.2-0.2-0.2-0.2l0,0l0,0c-0.1-0.1-0.1-0.2-0.2-0.3l0-0.1l0,0c0-0.1,0-0.2-0.1-0.2
		c0-0.1,0-0.2,0-0.3h0l0,0l0,0c0-0.3,0.1-0.6,0.4-0.9c0.2-0.2,0.4-0.4,0.7-0.6v0l0.1,0l3.5-1.5v0l0,0l0,0l0,0l4.8-2.1l-0.2-0.1l0,0
		c-0.1-0.1-0.2-0.1-0.3-0.2c-0.1-0.1-0.2-0.1-0.4-0.2c-0.7-0.3-1.4-0.5-2.1-0.6c-0.7-0.1-1.5-0.2-2.2-0.2c-0.7,0-1.4,0.1-2.1,0.3
		c-0.7,0.2-1.3,0.4-1.9,0.7l0,0l0,0l0,0c-0.2,0.1-0.4,0.2-0.6,0.4C333.5,20.8,333.3,21,333.2,21.1z"/>
	<path fill-rule="evenodd" clip-rule="evenodd" fill="#BE3944" d="M333.1,21.1c-0.2,0.2-0.3,0.3-0.5,0.5c-0.1,0.2-0.3,0.4-0.4,0.5
		c-0.2,0.4-0.4,0.7-0.5,1.1c-0.1,0.2-0.1,0.4-0.1,0.6c0,2.3,0,4.5,0,6.9l0,0v0.1v0V31h0c0,0.2-0.1,0.3-0.1,0.5
		c-0.1,0.2-0.2,0.4-0.4,0.5h0c-0.1,0.1-0.3,0.3-0.5,0.3c-0.2,0.1-0.4,0.1-0.6,0.1l0,0H330h0c-0.2,0-0.4,0-0.6-0.1
		c-0.2-0.1-0.4-0.2-0.5-0.3l0,0v0c-0.1-0.1-0.2-0.3-0.3-0.5c-0.1-0.2-0.1-0.4-0.1-0.6v-3v0v-3.5c0-0.4,0-0.9,0.1-1.3
		c0.1-0.7,0.4-1.5,0.7-2.1c0.5-0.9,1.2-1.7,1.8-2.2c0.4-0.4,0.8-0.7,1.3-1v0c0.5-0.3,1-0.6,1.5-0.8c0.8-0.4,1.7-0.6,2.7-0.8
		c1-0.2,1.9-0.2,2.9-0.2c1,0,2,0.2,2.9,0.4c0.9,0.2,1.8,0.6,2.7,1l0,0l0,0l0,0v0c0.2,0.1,0.3,0.2,0.5,0.3c0.2,0.1,0.4,0.2,0.5,0.3
		l0,0c0.2,0.1,0.4,0.2,0.5,0.4h0c0.2,0.1,0.3,0.3,0.5,0.4l0.1,0l0,0c0.3,0.3,0.7,0.7,1,1.1c0.8,1.2-0.2,2-1.3,2.4l-3.5,1.5
		c-0.2-0.1-0.4-0.3-0.6-0.4c-0.6-0.3-1.2-0.5-1.8-0.7l-0.5-0.2c-0.4-0.1-0.9-0.2-1.3-0.3l4.5-1.9l-0.2-0.1h0
		c-0.1-0.1-0.2-0.1-0.3-0.2c-0.1-0.1-0.2-0.1-0.4-0.2c-0.7-0.3-1.4-0.5-2.1-0.6c-0.7-0.1-1.5-0.2-2.2-0.2c-0.7,0-1.4,0.1-2.1,0.3
		c-0.7,0.2-1.3,0.4-1.9,0.7l0,0l0,0l0,0c-0.2,0.1-0.4,0.2-0.6,0.4C333.5,20.8,333.3,21,333.1,21.1z"/>
	<path fill-rule="evenodd" clip-rule="evenodd" fill="#BE3944" d="M127.6,21.9c-1.3,1.3-1.5,2.2-1.5,3.8h0v0.1V26V31v0v0.1l0,0
		c0,0.2-0.1,0.4-0.1,0.6c-0.1,0.2-0.2,0.3-0.3,0.4l0,0l-0.1,0.1c-0.1,0.1-0.3,0.2-0.5,0.3c-0.1,0.1-0.3,0.1-0.4,0.1v0h-0.1h-0.1
		c-0.2,0-0.4,0-0.6-0.1c-0.2-0.1-0.4-0.2-0.5-0.4l-0.1-0.1l0,0c-0.1-0.1-0.2-0.3-0.3-0.4c-0.1-0.2-0.1-0.4-0.1-0.6l0-3l0,0l0,0v0h0
		l0-2.1h0v-0.1v-0.1v-0.1h0c0-1.4,0.1-3.2,0.9-4.5c0.9-1.6,2.4-2.7,4.1-3.4c2.3-0.9,5-1.2,7.2-1.2v0l6.1,0v0h0.1h0.1l0,0
		c0.2,0,0.4,0.1,0.6,0.1c0.2,0.1,0.4,0.2,0.5,0.3c0.2,0.1,0.3,0.3,0.4,0.5c0.1,0.1,0.1,0.3,0.1,0.5h0v0.1v0v0.1h0l0,2.8l0,0v0v0h0
		v10c0,0.2,0,0.4-0.1,0.6h0c-0.1,0.2-0.2,0.4-0.4,0.5c-0.1,0.1-0.3,0.3-0.5,0.3l0,0c-0.2,0.1-0.3,0.1-0.5,0.1l0,0h-0.1h-0.1
		c-0.2,0-0.4,0-0.6-0.1h0c-0.2-0.1-0.4-0.2-0.5-0.4c-0.2-0.1-0.3-0.3-0.4-0.5l0,0c-0.1-0.2-0.1-0.4-0.1-0.6l0-3l0,0l0,0v0h0l0-8.2
		l-4.4,0v0c-0.5,0-1,0-1.5,0C131.6,20,129.1,20.4,127.6,21.9z"/>
	<g>
		<path fill-rule="evenodd" clip-rule="evenodd" fill="#BE3944" d="M184.8,28.6c-0.2-0.1-0.3-0.2-0.5-0.3c-0.2-0.1-0.4-0.2-0.6-0.2
			c-0.5-0.2-1-0.3-1.4-0.5h0c-0.5-0.1-1-0.2-1.4-0.3c-0.5-0.1-1-0.1-1.5-0.1c-0.5,0-1,0-1.5,0l-4.5,0l0,3.8l0,0V31v0v0.1h0
			c0,0.2-0.1,0.3-0.1,0.5c-0.1,0.2-0.2,0.4-0.4,0.5h0c-0.1,0.1-0.3,0.3-0.5,0.3c-0.2,0.1-0.4,0.1-0.6,0.1l0,0h-0.1h0
			c-0.2,0-0.4,0-0.6-0.1c-0.2-0.1-0.4-0.2-0.5-0.3l0,0v0c-0.1-0.1-0.2-0.3-0.3-0.5c-0.1-0.2-0.1-0.4-0.1-0.6v-3v0v-9.9
			c0-0.2,0-0.4,0.1-0.6c0.1-0.2,0.2-0.4,0.4-0.5h0c0.2-0.1,0.3-0.3,0.5-0.3c0.2-0.1,0.4-0.1,0.6-0.1c0.2,0,0.4,0,0.6,0.1
			c0.2,0.1,0.4,0.2,0.5,0.3c0.1,0.1,0.3,0.3,0.4,0.5c0.1,0.2,0.1,0.4,0.1,0.6v3v0l0,0l0,0v0V24c1.1,0,2.2,0,3.3-0.2
			c1.1-0.1,2.1-0.3,3.2-0.6c1-0.3,2-0.7,3-1.3c1-0.6,1.9-1.2,2.8-2.1c0.2-0.2,0.4-0.4,0.5-0.6c0.1-0.2,0.3-0.4,0.4-0.6
			c0.1-0.2,0.2-0.4,0.3-0.6c0.1-0.2,0.1-0.4,0.2-0.6c0-0.1,0.1-0.3,0.2-0.4v0c0.1-0.1,0.2-0.2,0.4-0.3c0.1-0.1,0.3-0.2,0.4-0.2
			c0.2-0.1,0.3-0.1,0.5-0.1h0c0.2,0,0.3,0,0.5,0.1v0c0.2,0,0.3,0.1,0.4,0.2c0.1,0.1,0.3,0.2,0.4,0.3c0.1,0.1,0.2,0.3,0.2,0.4l0,0
			l0,0l0,0v0c0.1,0.2,0.1,0.5,0.1,0.8c0,0.3-0.1,0.5-0.1,0.8l0,0c-0.1,0.2-0.2,0.5-0.3,0.7h0c-0.1,0.2-0.2,0.4-0.3,0.6l0,0
			c-0.1,0.1-0.1,0.2-0.2,0.2l-0.1,0.1v0l0,0.1l0,0l0,0c-0.1,0.1-0.1,0.2-0.2,0.2c-0.1,0.1-0.1,0.2-0.2,0.2c-0.3,0.3-0.6,0.7-1,1
			c-0.4,0.3-0.8,0.7-1.3,1c-0.4,0.3-0.9,0.6-1.4,0.9c-0.4,0.2-0.8,0.4-1.2,0.6l0.2,0l0,0l0.3,0.1h0l0,0c0.4,0.1,0.9,0.3,1.3,0.5
			c0.4,0.2,0.8,0.4,1.2,0.7c0.4,0.2,0.7,0.5,1,0.8c0.3,0.3,0.6,0.6,0.9,0.9c0.1,0.1,0.1,0.1,0.2,0.2h0c0,0.1,0.1,0.1,0.1,0.2l0,0
			l0,0l0,0l0,0l0,0c0.1,0.1,0.1,0.2,0.2,0.2h0c0.1,0.1,0.1,0.2,0.2,0.2l0,0c0.1,0.2,0.2,0.4,0.3,0.6c0.1,0.2,0.2,0.5,0.3,0.7
			c0.1,0.3,0.1,0.5,0.1,0.8c0,0.3,0,0.5-0.1,0.7v0l0,0c-0.1,0.1-0.1,0.3-0.2,0.4c-0.1,0.1-0.2,0.2-0.4,0.3c-0.1,0.1-0.3,0.2-0.4,0.2
			l0,0c-0.1,0-0.3,0.1-0.5,0.1c-0.2,0-0.3,0-0.5-0.1h0c-0.2-0.1-0.3-0.1-0.4-0.2c-0.1-0.1-0.3-0.2-0.4-0.3c-0.1-0.1-0.2-0.3-0.2-0.4
			l0,0v0c-0.1-0.2-0.1-0.4-0.2-0.6c-0.1-0.2-0.2-0.4-0.3-0.6l-0.1-0.1c-0.1-0.1-0.2-0.3-0.3-0.5l0,0c-0.1-0.2-0.3-0.4-0.5-0.6
			c-0.1-0.1-0.3-0.2-0.4-0.3C185.1,28.8,184.9,28.7,184.8,28.6L184.8,28.6z M189.3,20.3L189.3,20.3L189.3,20.3L189.3,20.3z
			 M189.3,28.7L189.3,28.7L189.3,28.7z"/>
	</g>
	<g>
		<path fill-rule="evenodd" clip-rule="evenodd" fill="#BE3944" d="M291.6,28.4c-0.2-0.1-0.3-0.2-0.5-0.3c-0.2-0.1-0.4-0.2-0.6-0.2
			c-0.5-0.2-1-0.3-1.4-0.5h0c-0.5-0.1-1-0.2-1.4-0.3c-0.5-0.1-1-0.1-1.5-0.1c-0.5,0-1,0-1.5,0l-4.5,0l0,3.8l0,0v0.1v0V31h0
			c0,0.2-0.1,0.3-0.1,0.5c-0.1,0.2-0.2,0.4-0.4,0.5h0c-0.1,0.1-0.3,0.3-0.5,0.3c-0.2,0.1-0.4,0.1-0.6,0.1l0,0h-0.1h0
			c-0.2,0-0.4,0-0.6-0.1c-0.2-0.1-0.4-0.2-0.5-0.3l0,0v0c-0.1-0.1-0.2-0.3-0.3-0.5c-0.1-0.2-0.1-0.4-0.1-0.6v-3v0v-9.9
			c0-0.2,0-0.4,0.1-0.6c0.1-0.2,0.2-0.4,0.4-0.5h0c0.2-0.1,0.3-0.3,0.5-0.3c0.2-0.1,0.4-0.1,0.6-0.1c0.2,0,0.4,0,0.6,0.1
			c0.2,0.1,0.4,0.2,0.5,0.3c0.1,0.1,0.3,0.3,0.4,0.5c0.1,0.2,0.1,0.4,0.1,0.6v3v0l0,0l0,0v0v2.9c1.1,0,2.2,0,3.3-0.2
			c1.1-0.1,2.1-0.3,3.2-0.6c1-0.3,2-0.7,3-1.3c1-0.6,1.9-1.2,2.8-2.1c0.2-0.2,0.4-0.4,0.5-0.6c0.1-0.2,0.3-0.4,0.4-0.6
			c0.1-0.2,0.2-0.4,0.3-0.6c0.1-0.2,0.1-0.4,0.2-0.6c0-0.1,0.1-0.3,0.2-0.4v0c0.1-0.1,0.2-0.2,0.4-0.3c0.1-0.1,0.3-0.2,0.4-0.2
			c0.2-0.1,0.3-0.1,0.5-0.1h0c0.2,0,0.3,0,0.5,0.1v0c0.2,0,0.3,0.1,0.4,0.2c0.1,0.1,0.3,0.2,0.4,0.3c0.1,0.1,0.2,0.3,0.2,0.4l0,0
			l0,0l0,0v0c0.1,0.2,0.1,0.5,0.1,0.8c0,0.3-0.1,0.5-0.1,0.8l0,0c-0.1,0.2-0.2,0.5-0.3,0.7h0c-0.1,0.2-0.2,0.4-0.3,0.6v0
			c-0.1,0.1-0.1,0.2-0.2,0.2l-0.1,0.1h0l0,0.1l0,0l0,0c-0.1,0.1-0.1,0.2-0.2,0.2c-0.1,0.1-0.1,0.2-0.2,0.2c-0.3,0.3-0.6,0.7-1,1
			c-0.4,0.3-0.8,0.7-1.3,1c-0.4,0.3-0.9,0.6-1.4,0.9c-0.4,0.2-0.8,0.4-1.2,0.6l0.2,0l0,0l0.3,0.1h0l0,0c0.4,0.1,0.9,0.3,1.3,0.5
			c0.4,0.2,0.8,0.4,1.2,0.7c0.4,0.2,0.7,0.5,1,0.8c0.3,0.3,0.6,0.6,0.9,0.9c0.1,0.1,0.1,0.1,0.2,0.2h0c0,0.1,0.1,0.1,0.1,0.2l0,0
			l0,0l0,0l0,0l0,0c0.1,0.1,0.1,0.2,0.2,0.2h0c0.1,0.1,0.1,0.2,0.2,0.2l0,0c0.1,0.2,0.2,0.4,0.3,0.6c0.1,0.2,0.2,0.5,0.3,0.7
			c0.1,0.3,0.1,0.5,0.1,0.8c0,0.3,0,0.5-0.1,0.7v0l0,0c-0.1,0.1-0.1,0.3-0.2,0.4c-0.1,0.1-0.2,0.2-0.4,0.3c-0.1,0.1-0.3,0.2-0.4,0.2
			l0,0c-0.1,0-0.3,0.1-0.5,0.1c-0.1,0-0.3,0-0.5-0.1h0c-0.2-0.1-0.3-0.1-0.4-0.2c-0.1-0.1-0.3-0.2-0.4-0.3c-0.1-0.1-0.2-0.3-0.2-0.4
			l0,0v0c-0.1-0.2-0.1-0.4-0.2-0.6c-0.1-0.2-0.2-0.4-0.3-0.6l-0.1-0.1c-0.1-0.1-0.2-0.3-0.3-0.5l0,0c-0.1-0.2-0.3-0.4-0.5-0.6
			c-0.1-0.1-0.3-0.2-0.4-0.3C291.9,28.6,291.8,28.5,291.6,28.4L291.6,28.4z M296.1,20.1L296.1,20.1L296.1,20.1L296.1,20.1z
			 M296.2,28.5L296.2,28.5L296.2,28.5z"/>
	</g>
	<path fill-rule="evenodd" clip-rule="evenodd" fill="#BE3944" d="M221.1,27.9L221.1,27.9L221.1,27.9L221.1,27.9L221.1,27.9v-8.5
		h-6.8h-0.1v0c-0.2,0-0.3-0.1-0.5-0.1c-0.2-0.1-0.4-0.2-0.5-0.4v0c-0.1-0.1-0.3-0.3-0.4-0.5l0,0c-0.1-0.2-0.1-0.4-0.1-0.6
		c0-0.2,0-0.4,0.1-0.6v0c0.1-0.2,0.2-0.4,0.4-0.5c0.2-0.2,0.3-0.3,0.5-0.4l0,0c0.2-0.1,0.4-0.1,0.6-0.1v0l0,0v0l17,0v0h0.1h0h0.1v0
		c0.2,0,0.3,0.1,0.5,0.1c0.2,0.1,0.4,0.2,0.5,0.4c0.1,0.2,0.3,0.3,0.4,0.5c0.1,0.2,0.1,0.3,0.1,0.5h0v0.1v0v0v0v0.1h0
		c0,0.2-0.1,0.3-0.1,0.5c-0.1,0.2-0.2,0.4-0.4,0.5c-0.1,0.1-0.3,0.3-0.5,0.4c-0.1,0.1-0.3,0.1-0.5,0.1v0h-0.1h0h-0.1v0l-2.8,0l0,0
		l0,0h0h0h-0.7v0h-0.1l-0.1,0h0l-0.1,0h0h0l0,0l-3,0l0,0h0h0h-0.1l0,1.3l0,0v0v0h0v10h0v0.1v0v0.1h0c0,0.2-0.1,0.3-0.1,0.5
		c-0.1,0.2-0.2,0.4-0.4,0.5c-0.1,0.1-0.3,0.2-0.5,0.3c-0.1,0.1-0.3,0.1-0.4,0.1l0,0h-0.1h-0.1c-0.2,0-0.4,0-0.6-0.1
		c-0.2-0.1-0.4-0.2-0.5-0.4c-0.2-0.2-0.3-0.3-0.4-0.5c-0.1-0.2-0.1-0.4-0.1-0.6L221.1,27.9z"/>
	<path fill-rule="evenodd" clip-rule="evenodd" fill="#BE3944" d="M97.9,29.4h-0.6v-21C97.3,7.8,96.6,7,96,7h-1.6
		c-2.7,0-6.2,1.1-8,2c-2.5,1.2-4,2.3-5.9,4.2c-1.9,1.9-2.9,3.4-4.2,5.9c-0.5,1-1.1,2.5-1.5,4.2c-0.1,0.5-0.4,2-0.5,2.6
		c-0.4,2.3,2.8,2.6,3.1,0.5c0.1-0.5,0.4-1.9,0.5-2.4c0.4-1.4,0.9-2.8,1.3-3.6c0.9-1.8,2.1-3.5,3.5-4.9c1.3-1.3,3.1-2.6,4.9-3.5
		c1.5-0.7,4.4-1.7,6.5-1.7v19.1l-2.3,0l0,0l-11.8,0l-0.1,0l-7,0c-0.9,0-1.6,0.7-1.6,1.6c0,0.9,0.7,1.6,1.6,1.6H79h5.7h6.1
		c0,0,0.1,0,0.1,0l0.9,0c0,0,0,0,0,0l6.1,0c0.9,0,1.6-0.7,1.6-1.6C99.5,30.1,98.8,29.4,97.9,29.4z"/>
	<circle fill-rule="evenodd" clip-rule="evenodd" fill="#BE3944" cx="323.6" cy="30.6" r="1.7"/>
</g>
<g>
	<ellipse fill-rule="evenodd" clip-rule="evenodd" fill="#BE3A44" cx="35.2" cy="27.9" rx="1.6" ry="1.6"/>
	<ellipse fill-rule="evenodd" clip-rule="evenodd" fill="#BE3A44" cx="35.2" cy="34.9" rx="1.6" ry="1.6"/>
	<path fill-rule="evenodd" clip-rule="evenodd" fill="#BE3A44" d="M41.5,22.6c-1.2-2.4-2.3-4-4.1-5.8c-1.7-1.7-3.2-2.8-5.4-3.9
		c-0.2-0.1-0.3-0.2-0.5-0.3c-1.8-0.9-5.3-2-8-2h-1.6c-0.6,0-1.3,0.8-1.3,1.3v38.9c0,0.6,0.8,1.3,1.4,1.3h1.3c2.9,0,6.3-1,8.3-2
		L32,50c2.3-1.2,3.7-2.3,5.5-4.1c3.2-3.2,5.9-8.2,5.9-14.5v-0.7C43.5,27.9,42.4,24.5,41.5,22.6z M40.3,32.2c0,4.7-2.7,9.2-5.1,11.6
		c-1,1-2,1.8-3.2,2.6c-0.5,0.3-1.1,0.6-1.7,0.9C28.9,48,25.8,49,23.7,49V13.9c2.1,0,5,1,6.5,1.7c0.6,0.3,1.2,0.6,1.7,1
		c1.1,0.7,2.2,1.6,3.1,2.5c1.3,1.3,2.6,3,3.5,4.8c0.7,1.5,1.7,4.4,1.7,6.5V32.2z"/>
	<path fill-rule="evenodd" clip-rule="evenodd" fill="#BE3A44" d="M16,48.8c0.7,0,1.4-0.7,1.4-1.4V15.6c0-0.8-0.8-1.4-1.6-1.4
		c-0.8,0-1.6,0.7-1.6,1.3v32.1c0,0.6,0.8,1.3,1.4,1.3H16z"/>
	<path fill-rule="evenodd" clip-rule="evenodd" fill="#BE3A44" d="M3.4,38c0.8,0,1.4-0.8,1.4-1.6v-9.9c0-0.7-0.7-1.6-1.3-1.6H3.2
		c-0.6,0-1.4,0.7-1.4,1.2v10.3c0,0.7,0.7,1.5,1.3,1.5H3.4z"/>
	<path fill-rule="evenodd" clip-rule="evenodd" fill="#BE3A44" d="M9.7,43.9c0.8,0,1.5-0.7,1.5-1.6V20.6c0-0.9-0.7-1.6-1.6-1.6
		C8.9,19,8,19.7,8,20.4v22.1c0,0.7,0.8,1.4,1.4,1.4H9.7z"/>
	<g>
		<path fill-rule="evenodd" clip-rule="evenodd" fill="#BE3A44" d="M45.7,7c-0.2,0.2-0.3,0.3-0.5,0.5C45,7.6,44.9,7.8,44.8,8
			c-0.2,0.4-0.4,0.7-0.5,1.1c-0.1,0.4-0.2,0.8-0.2,1.2c0,0.4,0.1,0.8,0.2,1.2c0.1,0.4,0.3,0.8,0.5,1.1c0.2,0.3,0.4,0.7,0.7,1
			c0.3,0.3,0.6,0.5,0.9,0.8h0c1.8,1.2,4.6,0.9,6.4-0.2v0l0.1-0.1l0.1-0.1l0,0l0.1-0.1l0.1-0.1l0,0l0,0l0,0c0.2-0.2,0.4-0.3,0.6-0.4
			c0.2-0.1,0.5-0.2,0.7-0.2c0.2,0,0.5,0,0.7,0.1c0.2,0.1,0.4,0.2,0.5,0.3c0.1,0.1,0.2,0.3,0.3,0.5c0.1,0.2,0.1,0.4,0.1,0.6
			c0,0.2-0.1,0.4-0.1,0.6c-0.1,0.2-0.2,0.3-0.3,0.5v0l0,0c-0.1,0.1-0.3,0.3-0.4,0.4v0c-0.2,0.1-0.3,0.3-0.5,0.4
			c-1.9,1.4-4.4,1.9-6.8,1.6c-3.4-0.4-6.1-2.4-7-5.8c-0.4-1.5-0.2-3.1,0.1-4.1c0.1-0.4,0.3-0.8,0.5-1.2c0.2-0.4,0.5-0.9,0.8-1.3v0
			c0.3-0.4,0.7-0.8,1.1-1.1c0.4-0.4,0.8-0.7,1.3-1v0c0.5-0.3,1-0.6,1.5-0.8c0.8-0.4,1.7-0.6,2.7-0.8c1-0.2,1.9-0.2,2.9-0.2
			c1,0,2,0.2,2.9,0.4c0.9,0.2,1.8,0.6,2.7,1l0,0l0,0l0,0v0c0.2,0.1,0.3,0.2,0.5,0.3c0.2,0.1,0.4,0.2,0.5,0.3h0
			c0.2,0.1,0.3,0.2,0.5,0.4h0c0.2,0.1,0.3,0.3,0.5,0.4l0.1,0l0,0c0.3,0.3,0.7,0.7,1,1.1c0.8,1.2-0.2,2-1.3,2.4l-7.8,3.3l-0.1,0
			l-0.1,0l0,0l-2.1,0.9c-0.4,0.2-0.8,0.3-1.2,0.3c-0.4,0-0.7-0.1-0.9-0.3h0l0,0c-0.1-0.1-0.2-0.2-0.2-0.2l0,0h0
			c-0.1-0.1-0.1-0.2-0.2-0.3l0-0.1l0,0c0-0.1,0-0.2-0.1-0.2c0-0.1,0-0.2,0-0.3l0,0v0v0c0-0.3,0.1-0.6,0.4-0.9
			c0.2-0.2,0.4-0.4,0.7-0.6v0l0.1,0l3.5-1.5l0,0l0,0l0,0l0,0l4.7-2l-0.2-0.1h0c-0.1-0.1-0.2-0.1-0.3-0.2c-0.1-0.1-0.2-0.1-0.4-0.2
			c-0.7-0.3-1.4-0.5-2.1-0.6c-0.7-0.1-1.5-0.2-2.2-0.2c-0.7,0-1.4,0.1-2.1,0.3c-0.7,0.2-1.3,0.4-1.9,0.7l0,0l0,0l0,0
			c-0.2,0.1-0.4,0.2-0.6,0.4C46,6.6,45.8,6.8,45.7,7z"/>
		<path fill-rule="evenodd" clip-rule="evenodd" fill="#BE3A44" d="M45.7,55.9c-0.2-0.2-0.3-0.3-0.5-0.5c-0.1-0.2-0.3-0.3-0.4-0.5
			c-0.2-0.4-0.4-0.7-0.5-1.1c-0.1-0.4-0.2-0.8-0.2-1.2c0-0.4,0.1-0.8,0.2-1.2c0.1-0.4,0.3-0.8,0.5-1.1c0.2-0.3,0.4-0.7,0.7-1
			c0.3-0.3,0.6-0.5,0.9-0.8h0c1.8-1.2,4.6-0.9,6.4,0.2v0l0.1,0.1L53,49l0,0l0.1,0.1l0.1,0.1l0,0l0,0l0,0c0.2,0.2,0.4,0.3,0.6,0.4
			c0.2,0.1,0.5,0.2,0.7,0.2c0.2,0,0.5,0,0.7-0.1c0.2-0.1,0.4-0.2,0.5-0.3c0.1-0.1,0.2-0.3,0.3-0.5c0.1-0.2,0.1-0.4,0.1-0.6
			c0-0.2-0.1-0.4-0.1-0.6c-0.1-0.2-0.2-0.3-0.3-0.5v0l0,0c-0.1-0.1-0.3-0.3-0.4-0.4v0c-0.2-0.1-0.3-0.3-0.5-0.4
			c-1.9-1.4-4.4-1.9-6.8-1.6c-3.4,0.4-6.1,2.4-7,5.8c-0.4,1.5-0.2,3.1,0.1,4.1c0.1,0.4,0.3,0.8,0.5,1.2c0.2,0.4,0.5,0.9,0.8,1.3v0
			c0.3,0.4,0.7,0.8,1.1,1.1c0.4,0.4,0.8,0.7,1.3,1v0c0.5,0.3,1,0.6,1.5,0.8c0.8,0.4,1.7,0.6,2.7,0.8c1,0.2,1.9,0.2,2.9,0.2
			c1,0,2-0.2,2.9-0.4c0.9-0.2,1.8-0.6,2.7-1l0,0l0,0l0,0v0c0.2-0.1,0.3-0.2,0.5-0.3c0.2-0.1,0.4-0.2,0.5-0.3h0
			c0.2-0.1,0.3-0.2,0.5-0.4h0c0.2-0.1,0.3-0.3,0.5-0.4l0.1,0l0,0c0.3-0.3,0.7-0.7,1-1.1c0.8-1.2-0.2-2-1.3-2.4l-7.8-3.3l-0.1,0
			l-0.1,0l0,0l-2.1-0.9c-0.4-0.2-0.8-0.3-1.2-0.3c-0.4,0-0.7,0.1-0.9,0.3h0l0,0c-0.1,0.1-0.2,0.2-0.2,0.2l0,0h0
			c-0.1,0.1-0.1,0.2-0.2,0.3l0,0.1l0,0c0,0.1,0,0.2-0.1,0.2c0,0.1,0,0.2,0,0.3l0,0v0v0c0,0.3,0.1,0.6,0.4,0.9
			c0.2,0.2,0.4,0.4,0.7,0.6v0l0.1,0l3.5,1.5l0,0l0,0l0,0l0,0l4.7,2l-0.2,0.1h0c-0.1,0.1-0.2,0.1-0.3,0.2C55.4,57,55.3,57,55.2,57
			c-0.7,0.3-1.4,0.5-2.1,0.6c-0.7,0.1-1.5,0.2-2.2,0.2c-0.7,0-1.4-0.1-2.1-0.3c-0.7-0.2-1.3-0.4-1.9-0.7l0,0l0,0l0,0
			c-0.2-0.1-0.4-0.2-0.6-0.4C46,56.3,45.8,56.1,45.7,55.9z"/>
	</g>
</g>
<g>
	<path fill="#636464" d="M132.6,46.5h1.7v0.9c0,0.4-0.1,0.7-0.1,0.7h0c0.6-1.2,1.9-1.8,3.3-1.8c2.6,0,4.3,2.1,4.3,5.1
		c0,3.1-1.9,5.1-4.4,5.1c-1.2,0-2.4-0.6-3-1.7h0c0,0,0.1,0.3,0.1,0.8v4.4h-1.9V46.5z M137.1,54.9c1.5,0,2.8-1.3,2.8-3.5
		c0-2.1-1.1-3.5-2.8-3.5c-1.5,0-2.8,1-2.8,3.5C134.4,53.2,135.3,54.9,137.1,54.9z"/>
	<path fill="#636464" d="M149.2,50.2h0.5V50c0-1.6-0.9-2.1-2.1-2.1c-1,0-1.9,0.4-2.7,0.9l-0.8-1.4c0.8-0.7,2.3-1.2,3.6-1.2
		c2.4,0,3.9,1.3,3.9,3.8v6.2h-1.8v-1c0-0.4,0.1-0.8,0.1-0.8h0c-0.6,1.1-1.8,2-3.2,2c-1.7,0-3.3-1.1-3.3-2.9
		C143.4,50.6,147.2,50.2,149.2,50.2z M147.1,55c1.6,0,2.6-1.7,2.6-3.1v-0.4h-0.5c-1.4,0-4,0.1-4,1.9C145.2,54.2,145.8,55,147.1,55z"
		/>
	<path fill="#636464" d="M154.3,54.7c1.4-1.9,1.5-4.9,1.5-6.4v-1.8h6.6v8.2h1.4v3.9h-1.7v-2.3h-7.2v2.3h-1.8v-3.9H154.3z
		 M160.5,54.7v-6.7h-2.9v0.5c0,1.5-0.2,4.2-1.4,6.2H160.5z"/>
	<path fill="#636464" d="M166.1,58.7c0.8,0,1.4-0.6,1.8-1.4l0.5-1.1l-4.1-9.6h2.1l2.4,6.4c0.2,0.5,0.4,1.2,0.4,1.2h0
		c0,0,0.2-0.7,0.3-1.2l2.4-6.4h2L169.4,58c-0.6,1.5-1.8,2.3-3.2,2.3c-1.1,0-1.9-0.6-1.9-0.6l0.7-1.4C165,58.3,165.6,58.7,166.1,58.7
		z"/>
	<path fill="#636464" d="M179.7,46.3c2.8,0,4.2,2.1,4.2,4.6c0,0.3,0,0.5-0.1,0.8h-7.1c0.1,2.1,1.6,3.2,3.4,3.2c1,0,2.1-0.4,2.9-1.1
		l0.8,1.4c-0.9,0.9-2.4,1.4-3.8,1.4c-3.1,0-5.2-2.2-5.2-5.1C174.8,48.3,177,46.3,179.7,46.3z M182.1,50.3c-0.1-1.7-1.1-2.6-2.4-2.6
		c-1.4,0-2.6,0.9-2.9,2.6H182.1z"/>
	<path fill="#636464" d="M186.7,46.5h2.1l2.5,5.5c0.3,0.6,0.5,1.3,0.5,1.3h0c0,0,0.3-0.7,0.5-1.3l2.5-5.5h2l0.8,9.8H196l-0.4-5.8
		c0-0.6,0-1.7,0-1.7h0c0,0-0.3,0.7-0.6,1.4l-2.3,4.9H191l-2.3-4.9c-0.3-0.7-0.6-1.4-0.6-1.4h0c0,0,0.1,1.1,0,1.7l-0.4,5.8h-1.8
		L186.7,46.5z"/>
	<path fill="#636464" d="M209.7,46.3c1.3,0,2.7,0.4,3.7,1.4l-0.9,1.3c-0.7-0.7-1.7-1.1-2.7-1.1c-2,0-3.4,1.5-3.4,3.5
		c0,2,1.4,3.5,3.5,3.5c1.1,0,2.3-0.5,3-1.3l0.8,1.4c-0.9,0.9-2.4,1.6-3.9,1.6c-3.1,0-5.2-2.2-5.2-5.1
		C204.5,48.5,206.6,46.3,209.7,46.3z"/>
	<path fill="#636464" d="M220.1,55.2c0-4.8,6.7-5.6,6.7-8.8c0-1.3-1-2.3-2.5-2.3c-1.1,0-2.2,0.8-2.8,1.7l-1.4-0.9
		c0.8-1.4,2.3-2.6,4.3-2.6c2.5,0,4.3,1.6,4.3,3.9c0,4.5-6.5,5.2-6.6,8.3h6.8v1.7h-8.8C220.1,55.9,220.1,55.6,220.1,55.2z"/>
	<path fill="#636464" d="M231.2,49.5c0-3.9,1.2-7,4.8-7c3.6,0,4.8,3.1,4.8,7c0,3.9-1.2,7.1-4.8,7.1
		C232.4,56.5,231.2,53.4,231.2,49.5z M238.9,49.5c0-3-0.6-5.3-2.9-5.3c-2.2,0-2.9,2.3-2.9,5.3c0,3,0.6,5.3,2.9,5.3
		C238.3,54.8,238.9,52.5,238.9,49.5z"/>
	<path fill="#636464" d="M243.2,49.5c0-3.9,1.2-7,4.8-7c3.6,0,4.8,3.1,4.8,7c0,3.9-1.2,7.1-4.8,7.1
		C244.4,56.5,243.2,53.4,243.2,49.5z M250.9,49.5c0-3-0.6-5.3-2.9-5.3c-2.2,0-2.9,2.3-2.9,5.3c0,3,0.6,5.3,2.9,5.3
		C250.3,54.8,250.9,52.5,250.9,49.5z"/>
	<path fill="#636464" d="M256.1,53.2c0.6,0.7,1.6,1.5,3,1.5c1.6,0,3-1.1,3-2.8c0-1.6-1.3-2.8-3.1-2.8c-0.8,0-1.7,0.3-2.3,0.7
		l-1.1-0.4l0.7-6.8h6.9v1.7h-5.2l-0.3,2.9c0,0.4-0.1,0.7-0.1,0.7h0c0.3-0.2,1.1-0.4,1.8-0.4c2.9,0,4.7,2,4.7,4.5
		c0,2.6-2.1,4.6-4.8,4.6c-1.6,0-3.2-0.7-4.2-1.9L256.1,53.2z"/>
	<path fill="#636464" d="M271.2,46.5h6.1v1.6H273v8.2h-1.9V46.5z"/>
	<path fill="#636464" d="M283.4,46.3c2.9,0,5.3,2.1,5.3,5.1c0,3-2.4,5.1-5.2,5.1c-2.9,0-5.3-2.2-5.3-5.1
		C278.1,48.4,280.5,46.3,283.4,46.3z M283.4,54.9c1.8,0,3.4-1.5,3.4-3.5c0-2-1.5-3.5-3.4-3.5c-1.9,0-3.4,1.4-3.4,3.5
		C280,53.4,281.6,54.9,283.4,54.9z"/>
	<path fill="#636464" d="M290.6,54.7c1.4-1.9,1.5-4.9,1.5-6.4v-1.8h6.6v8.2h1.4v3.9h-1.7v-2.3h-7.2v2.3h-1.8v-3.9H290.6z
		 M296.9,54.7v-6.7H294v0.5c0,1.5-0.2,4.2-1.4,6.2H296.9z"/>
	<path fill="#636464" d="M307.1,50.2h0.5V50c0-1.6-0.9-2.1-2.1-2.1c-1,0-1.9,0.4-2.7,0.9l-0.8-1.4c0.8-0.7,2.3-1.2,3.6-1.2
		c2.5,0,3.9,1.3,3.9,3.8v6.2h-1.8v-1c0-0.4,0.1-0.8,0.1-0.8h0c-0.6,1.1-1.8,2-3.2,2c-1.7,0-3.3-1.1-3.3-2.9
		C301.3,50.6,305.1,50.2,307.1,50.2z M305,55c1.6,0,2.6-1.7,2.6-3.1v-0.4h-0.5c-1.4,0-4,0.1-4,1.9C303.2,54.2,303.8,55,305,55z"/>
</g>
</svg>
